<svg xmlns="http://www.w3.org/2000/svg" width="70" height="70" viewBox="0 0 70 70" fill="none"><g clip-path="url(#clip0_337_4486)"><g filter="url(#filter0_f_337_4486)"><path d="M17.286 33.3285C17.286 33.3285 9.75518 24.1233 19.7033 16.4999C19.7033 16.4999 28.1644 10.7349 26.9552 5.15625C26.9702 5.22503 27.3478 5.40886 27.4079 5.45013C27.788 5.719 28.1457 6.02038 28.4771 6.34677C29.46 7.31594 30.2153 8.53147 30.4867 9.89707C31.4734 14.8642 26.62 18.6234 23.2911 21.3683C19.7208 24.3133 16.8758 28.6152 17.286 33.3273V33.3285Z" fill="#FE804B"></path><path d="M52.3393 36.6777C52.3393 36.6777 60.4278 45.883 50.4797 53.5063C50.4797 53.5063 42.0185 59.2713 43.2278 64.85C43.2128 64.7812 42.8351 64.5974 42.7751 64.5561C42.3949 64.2873 42.0373 63.9859 41.7059 63.6595C40.723 62.6903 39.9676 61.4748 39.6963 60.1092C38.7096 55.142 43.563 51.3829 46.8919 48.6379C50.4622 45.6929 52.7495 41.391 52.3393 36.679V36.6777Z" fill="#1AC161"></path><path d="M35.0448 23.0078C28.4206 23.0078 23.0508 28.3777 23.0508 35.0018C23.0508 41.6259 28.4206 46.9958 35.0448 46.9958C41.6689 46.9958 47.0387 41.6259 47.0387 35.0018C47.0387 28.3777 41.6689 23.0078 35.0448 23.0078ZM35.0448 40.3016C32.1172 40.3016 29.7449 37.9293 29.7449 35.0018C29.7449 32.0743 32.1172 29.702 35.0448 29.702C37.9723 29.702 40.3446 32.0743 40.3446 35.0018C40.3446 37.9293 37.9723 40.3016 35.0448 40.3016Z" fill="#5BB8D8"></path></g><path d="M20.5915 33.2444C20.5915 33.2444 14.2647 25.5108 22.6223 19.1063C22.6223 19.1063 29.7308 14.263 28.7148 9.57617C28.7274 9.63396 29.0447 9.7884 29.0951 9.82307C29.4145 10.0489 29.715 10.3021 29.9934 10.5764C30.8192 11.3906 31.4538 12.4118 31.6818 13.559C32.5107 17.7321 28.4333 20.8902 25.6365 23.1963C22.637 25.6705 20.2469 29.2846 20.5915 33.2433V33.2444Z" stroke="white" stroke-width="0.2" stroke-miterlimit="10"></path><path d="M19.654 33.2444C19.654 33.2444 13.3272 25.5108 21.6848 19.1063C21.6848 19.1063 28.7933 14.263 27.7773 9.57617C27.7899 9.63396 28.1072 9.7884 28.1576 9.82307C28.477 10.0489 28.7775 10.3021 29.0559 10.5764C29.8817 11.3906 30.5163 12.4118 30.7443 13.559C31.5732 17.7321 27.4958 20.8902 24.699 23.1963C21.6995 25.6705 19.3094 29.2846 19.654 33.2433V33.2444Z" fill="#FE804B"></path><path d="M50.0394 36.7578C50.0394 36.7578 56.8348 44.4914 48.4771 50.8959C48.4771 50.8959 41.3687 55.7392 42.3846 60.426C42.372 60.3682 42.0547 60.2138 42.0043 60.1791C41.6849 59.9533 41.3844 59.7001 41.106 59.4258C40.2802 58.6116 39.6457 57.5904 39.4177 56.4432C38.5888 52.2701 42.6662 49.112 45.4629 46.8059C48.4624 44.3317 50.384 40.7176 50.0394 36.7589V36.7578Z" stroke="white" stroke-width="0.2" stroke-miterlimit="10"></path><path d="M49.1019 36.0566C49.1019 36.0566 55.8973 43.7902 47.5396 50.1947C47.5396 50.1947 40.4312 55.0381 41.4471 59.7249C41.4345 59.6671 41.1172 59.5126 41.0668 59.478C40.7474 59.2521 40.4469 58.9989 40.1685 58.7247C39.3427 57.9105 38.7082 56.8893 38.4802 55.742C37.6513 51.5689 41.7287 48.4108 44.5254 46.1047C47.5249 43.6305 49.4465 40.0164 49.1019 36.0577V36.0566Z" fill="#1AC161"></path><path d="M35.5139 24.5742C29.9488 24.5742 25.4375 29.0856 25.4375 34.6507C25.4375 40.2158 29.9488 44.7271 35.5139 44.7271C41.079 44.7271 45.5904 40.2158 45.5904 34.6507C45.5904 29.0856 41.079 24.5742 35.5139 24.5742ZM35.5139 39.1032C33.0544 39.1032 31.0614 37.1101 31.0614 34.6507C31.0614 32.1912 33.0544 30.1982 35.5139 30.1982C37.9734 30.1982 39.9664 32.1912 39.9664 34.6507C39.9664 37.1101 37.9734 39.1032 35.5139 39.1032Z" stroke="white" stroke-width="0.2" stroke-miterlimit="10"></path><path d="M34.5764 24.5742C29.0113 24.5742 24.5 29.0856 24.5 34.6507C24.5 40.2158 29.0113 44.7271 34.5764 44.7271C40.1415 44.7271 44.6529 40.2158 44.6529 34.6507C44.6529 29.0856 40.1415 24.5742 34.5764 24.5742ZM34.5764 39.1032C32.1169 39.1032 30.1239 37.1101 30.1239 34.6507C30.1239 32.1912 32.1169 30.1982 34.5764 30.1982C37.0359 30.1982 39.0289 32.1912 39.0289 34.6507C39.0289 37.1101 37.0359 39.1032 34.5764 39.1032Z" fill="white"></path></g><defs><filter id="filter0_f_337_4486" x="3.55469" y="-5.84375" width="62.8867" height="81.6934" filterUnits="userSpaceOnUse" color-interpolation-filters="sRGB"><feGaussianBlur stdDeviation="5.5"></feGaussianBlur></filter><clipPath id="clip0_337_4486"><rect width="70" height="70" fill="white"></rect></clipPath></defs></svg>